# xmcd CD database file
#
# Track frame offsets:
#	150
#	13726
#	32433
#	48946
#	60699
#	70433
#	95372
#	114425
#	130368
#	149436
#	170027
#
# Disc length: 2517 seconds
#
# Revision: 0
# Processed by: cddbd v1.5.2PL0 Copyright (c) Steve Scherf et al.
# Submitted via: CDex 1.70beta2
#
DISCID=9b09d30b
DTITLE=Sian - As simple as that
DYEAR=2008
DGENRE=Jazz
TTITLE0=Sweet melody
TTITLE1=Can't go on
TTITLE2=Child
TTITLE3=That was just
TTITLE4=Baby Boo
TTITLE5=Love Affair
TTITLE6=On way love
TTITLE7=Une envie
TTITLE8=Fifteen
TTITLE9=As simple as that
TTITLE10=Fever
EXTD=YEAR: 2008
EXTT0=
EXTT1=
EXTT2=
EXTT3=
EXTT4=
EXTT5=
EXTT6=
EXTT7=
EXTT8=
EXTT9=
EXTT10=
PLAYORDER=
